<svg width="382" height="362" viewBox="0 0 382 362" fill="none" xmlns="http://www.w3.org/2000/svg">
<g clip-path="url(#clip0_28_83)">
<path d="M99.3473 198.103C100.577 201.749 99.6959 205.34 97.3803 206.124C95.0647 206.908 92.1917 204.587 90.9624 200.94C90.4514 199.489 90.2944 197.937 90.5045 196.414L85.4904 180.898L92.8056 178.695L96.972 194.225C98.0615 195.309 98.8759 196.639 99.3473 198.103Z" fill="#FFB6B6"/>
<path d="M102.419 110.227C102.419 110.227 91.3732 110.709 90.8929 116.484C90.4127 122.26 76.6926 158.282 76.6926 158.282L87.4815 191.32L95.8728 185.914L91.0778 160.084L107.261 135.456L102.419 110.227Z" fill="#FFB6C3"/>
<path d="M345.489 79.1927C345.489 56.5917 326.428 44.1587 304.655 38.27C276.74 30.7201 256.296 45.9976 263.821 79.1927C265.527 86.7161 269.606 95.5029 274.656 103.019H314.726C328.111 94.2861 345.489 96.7352 345.489 79.1927Z" fill="#FFB6C3"/>
<path d="M74.8597 344.962L80.7045 345.839L87.2845 319.857L78.659 318.561L74.8597 344.962Z" fill="#FFB6B6"/>
<path d="M93.4342 359.754C93.3096 360.746 92.5059 361.462 91.6389 361.353L80.0028 359.886C80.0028 359.886 79.4367 355.129 75.0171 352.555L73.8668 359.113L67.8642 358.356L69.9229 347.838C69.9229 347.838 69.0295 341.96 72.7283 339.479C76.4273 336.997 73.6755 337.061 73.6755 337.061L75.8114 330.66L84.7479 332.872L83.5211 343.188L86.639 353.975L92.6944 357.985C93.2334 358.342 93.5241 359.037 93.4342 359.754Z" fill="#2F2E41"/>
<path d="M145.832 346.549L151.74 346.689L155.034 320.086L146.314 319.88L145.832 346.549Z" fill="#FFB6B6"/>
<path d="M166.103 358.902C166.103 359.903 165.395 360.714 164.521 360.714H152.793C152.793 360.714 151.639 356.064 146.933 354.064L146.609 360.714H140.559L141.292 350.021C141.292 350.021 139.673 344.3 143.034 341.375C146.396 338.451 143.673 338.858 143.673 338.858L144.995 332.24L154.137 333.317L154.205 343.706L158.641 354.018L165.149 357.24C165.728 357.527 166.103 358.18 166.103 358.902Z" fill="#2F2E41"/>
<path d="M101.664 171.2L90.2784 208.904L92.3246 265.915L75.9054 324.072H88.9419L116.105 266.697L123.446 215.85L143.742 326.142H156.355L153.413 210.542L144.237 170.208L101.664 171.2Z" fill="#EDEDED"/>
<path d="M130.871 96.2873L114.535 95.295L110.08 104.225L93.7437 113.155L105.624 144.906L95.8728 188.917C95.8728 188.917 105.905 179.572 117.451 191.32C134.548 208.719 152.215 200.33 152.215 200.33L142.025 154.078L145.621 115.634C146.083 112.601 150.315 108.822 147.42 107.825L135.326 102.737L130.871 96.2873Z" fill="#FFB6C3"/>
<path d="M127.265 101.931H107.726C107.755 100.601 107.56 99.2795 107.158 98.0823C107.147 99.4109 106.945 100.722 106.566 101.931H105.679C104.322 101.929 103.221 100.335 103.22 98.3666C98.6286 93.2562 99.2309 86.9863 103.22 79.9601C103.221 70.948 108.536 57.438 114.311 63.0913C114.498 63.0772 117.425 61.1973 117.612 61.1973C122.693 61.2032 124.44 67.8504 125.974 74.8724C127.723 73.7044 128.927 78.5799 129.799 87.1613C130.053 89.6655 130.279 92.4853 130.482 95.5627C131.042 98.1447 130.052 100.896 128.271 101.708C127.945 101.857 127.605 101.933 127.264 101.934L127.265 101.931Z" fill="#2F2E41"/>
<path d="M123.271 94.0221C131.201 94.0221 137.629 87.5799 137.629 79.6331C137.629 71.6863 131.201 65.2441 123.271 65.2441C115.342 65.2441 108.914 71.6863 108.914 79.6331C108.914 87.5799 115.342 94.0221 123.271 94.0221Z" fill="#FFB6B6"/>
<path d="M124.643 102.418C123.298 104.215 120.945 104.93 118.831 104.185L112.437 101.931C111.838 101.931 111.329 101.579 111.301 101.124L111.298 101.074C111.234 100.125 109.485 99.9656 109.08 100.864C108.916 101.225 108.73 101.582 108.522 101.931H107.363V73.9316C107.363 69.1292 112.476 65.2361 118.783 65.2361C124.168 65.2361 128.821 68.1003 129.949 72.1095C129.949 72.1095 137.954 79.5857 133.236 83.7889C128.519 87.9921 135.382 91.4133 135.382 91.4133C136.745 96.2567 132.412 104.129 126.277 105.732C125.556 105.921 125.408 102.418 124.643 102.418Z" fill="#2F2E41"/>
<path d="M141.159 77.4963C140.571 78.3342 139.032 80.5311 134.233 80.1931C133.011 80.1049 128.67 78.9075 125.51 78.9663C123.416 79.0031 122.127 78.9883 119.548 78.9663C116.5 78.9369 115.666 78.8781 115.077 78.2313C113.937 76.9744 114.876 74.74 114.332 74.5563C113.877 74.4019 112.7 75.7837 112.096 77.4963C110.829 81.0905 115.375 86.0959 115.822 90.7265C116.299 95.7172 111.604 86.1547 112.096 90.7265C112.648 95.8715 114.622 95.482 114.6 97.3415C114.593 97.6209 114.511 97.8634 114.332 98.0765C114.175 98.2677 114.019 98.3411 111.351 98.8116C108.162 99.3775 106.559 99.6568 106.135 99.5466C105.039 99.2673 103.929 97.7164 103.154 96.6065C101.872 94.791 102.781 96.6212 103.154 94.4015C103.511 92.2552 104.629 91.976 104.644 89.9914C104.659 87.4924 102.893 86.7354 101.663 84.1114C99.3904 79.2603 101.611 73.6449 102.408 71.6162C102.791 70.6434 103.486 69.4121 104.703 67.3778C105.681 65.7446 106.978 64.3059 108.56 63.228C110.931 61.6123 113.684 60.5053 116.662 60.0667C118.293 59.8264 119.956 59.9526 121.559 60.3325L125.712 61.3168C127.458 61.7305 129.104 62.4803 130.555 63.5232C131.907 63.5277 133.08 64.3899 133.544 65.643C133.592 65.7741 133.636 65.8505 133.673 65.8393C141.159 63.5311 141.154 70.3676 141.072 74.6382C141.064 75.0753 141.08 75.4622 141.137 75.7764V75.7984C141.286 76.6437 141.323 77.2611 141.159 77.4963Z" fill="#2F2E41"/>
<path d="M53.0439 350.606C51.8056 350.684 51.1212 349.142 52.058 348.243L52.1512 347.872C52.139 347.842 52.1268 347.813 52.1144 347.783C50.8591 344.784 48.6116 347.615 45.3728 347.816C40.6094 348.113 40.6805 351.723 42.5258 355.945C43.0267 357.091 38.7745 347.844 38.7745 341.636C38.7745 340.076 38.8597 338.517 39.0339 336.961C39.1771 335.688 39.3745 334.424 39.6301 333.17C41.0121 326.396 44.0047 319.944 48.3212 314.555C50.3962 313.419 52.1267 311.642 53.1719 309.512C53.5474 308.743 56.7737 308.095 56.9131 307.253C56.6769 307.284 53.0906 303.502 53.2687 303.281C52.9396 302.78 52.3506 302.532 51.9912 302.043C50.2036 299.614 47.7408 300.038 46.4552 303.339C43.7087 304.728 43.6821 307.032 45.3673 309.248C46.4395 310.658 46.5868 312.565 47.5275 314.074C47.4307 314.198 47.3301 314.319 47.2333 314.443C47.1961 314.491 47.159 314.539 47.122 314.587C45.6036 316.556 42.5716 316.051 41.726 313.711C41.6643 313.541 41.1409 322.785 41.5347 313.217C41.9286 303.649 38.4947 308.519 36.7562 306.313C34.6797 303.677 30.4557 304.875 30.0898 308.213C30.0863 308.245 30.0828 308.277 30.0795 308.309C30.3366 308.454 30.5884 308.609 30.8344 308.772C32.2366 309.701 31.7515 311.88 30.09 312.136L30.0524 312.142C30.1453 313.069 30.3041 313.989 30.5363 314.893C28.3181 323.49 33.1054 326.623 39.9425 326.765L40.2987 327.273C39.6513 329.14 39.1305 331.052 38.7396 332.988C38.3719 334.784 38.1163 336.6 37.9731 338.424L37.9672 338.502C37.8486 340.053 35.8901 340.713 34.9058 339.51C34.6552 339.203 34.3989 338.935 34.1405 338.722C31.1762 336.282 26.9882 335.383 23.7902 333.422C22.2508 332.477 20.2782 333.698 20.5469 335.486L20.5599 335.572C21.0361 335.766 21.5006 335.991 21.9497 336.243C22.207 336.389 22.4591 336.543 22.7053 336.706C24.1077 337.636 23.6222 339.815 21.9603 340.071L21.9226 340.076C21.8955 340.08 21.8723 340.084 21.8452 340.088L21.8698 340.146C22.939 342.667 25.4945 344.3 28.2234 344.15C31.4356 343.974 35.4256 346.666 38.9448 351.425L38.9487 351.425C39.6455 354.466 40.6637 357.438 41.9722 360.271H52.7732C52.8119 360.15 52.8467 360.026 52.8816 359.906C51.8828 359.968 50.8762 359.91 49.8929 359.727C50.6943 358.742 51.4956 357.749 52.297 356.763C52.3163 356.744 52.3319 356.724 52.3473 356.705C52.7538 356.201 53.1642 355.7 53.5707 355.196L53.5709 355.195C53.5963 353.647 53.4108 352.103 53.0439 350.606Z" fill="#F2F2F2"/>
<path d="M0 361.285C0 361.682 0.31769 362 0.713299 362H217.264C217.659 362 217.977 361.682 217.977 361.285C217.977 360.889 217.659 360.57 217.264 360.57H0.713299C0.31769 360.57 0 360.889 0 361.285Z" fill="#CCCCCC"/>
<path d="M324.836 18.923V82.5958C324.836 88.2266 320.265 92.8075 314.647 92.8075H251.112C245.494 92.8075 240.923 88.2266 240.923 82.5958V18.923C240.923 13.2921 245.494 8.7113 251.112 8.7113H314.647C320.265 8.7113 324.836 13.2921 324.836 18.923ZM314.647 91.6061C319.612 91.6061 323.637 87.572 323.637 82.5958V50.4945C323.637 28.0818 305.508 9.91268 283.144 9.91268H251.112C246.147 9.91268 242.122 13.9467 242.122 18.923V82.5958C242.122 87.572 246.147 91.6061 251.112 91.6061H314.647Z" fill="#F2F2F2"/>
<path d="M275.354 142.058H254.843C254.325 142.058 253.905 141.636 253.905 141.118C253.905 140.6 254.325 140.178 254.843 140.178H275.354C275.871 140.178 276.291 140.6 276.291 141.118C276.291 141.636 275.871 142.058 275.354 142.058Z" fill="#DEDEDE"/>
<path d="M370.056 1.87962H349.545C349.028 1.87962 348.607 1.45794 348.607 0.939709C348.607 0.421478 349.028 0 349.545 0H370.056C370.573 0 370.994 0.421478 370.994 0.939709C370.994 1.45794 370.573 1.87962 370.056 1.87962Z" fill="#DEDEDE"/>
<path d="M370.056 21.9208H349.545C349.028 21.9208 348.607 21.4991 348.607 20.9808C348.607 20.4626 349.028 20.0411 349.545 20.0411H370.056C370.573 20.0411 370.994 20.4626 370.994 20.9808C370.994 21.4991 370.573 21.9208 370.056 21.9208Z" fill="#F7F7F7"/>
<path d="M381.062 11.9067H338.538C338.021 11.9067 337.6 11.485 337.6 10.9668C337.6 10.4486 338.021 10.0271 338.538 10.0271H381.062C381.579 10.0271 382 10.4486 382 10.9668C382 11.485 381.579 11.9067 381.062 11.9067Z" fill="#DEDEDE"/>
<path d="M338.613 158.883H249.923C244.63 158.883 240.324 154.567 240.324 149.263V116.844C240.324 111.54 244.63 107.224 249.923 107.224H338.613C343.906 107.224 348.212 111.54 348.212 116.844V149.263C348.212 154.567 343.906 158.883 338.613 158.883ZM249.923 108.425C245.291 108.425 241.522 112.202 241.522 116.844V149.263C241.522 153.905 245.291 157.682 249.923 157.682H338.613C343.245 157.682 347.013 153.905 347.013 149.263V116.844C347.013 112.202 343.245 108.425 338.613 108.425H249.923Z" fill="#DEDEDE"/>
<path d="M372.664 103.019H361.96C343.803 103.019 329.032 88.2156 329.032 70.0196V59.2923C329.032 55.5808 332.045 52.5615 335.748 52.5615H372.664C376.367 52.5615 379.38 55.5808 379.38 59.2923V96.2885C379.38 99.9999 376.367 103.019 372.664 103.019ZM335.748 53.7629C332.701 53.7629 330.231 56.2384 330.231 59.292V70.0196C330.231 87.5813 344.436 101.818 361.96 101.818H372.664C375.711 101.818 378.181 99.3424 378.181 96.2888V72.7247C378.181 62.2524 369.71 53.7629 359.261 53.7629H335.748Z" fill="#EFEFEF"/>
<path d="M153.699 201.886C153.977 205.724 156.179 208.692 158.617 208.515C161.054 208.337 162.804 205.081 162.526 201.241C162.435 199.706 161.98 198.214 161.196 196.892L159.813 180.642L152.218 181.455L154.388 197.388C153.803 198.811 153.567 200.353 153.699 201.886Z" fill="#FFB6B6"/>
<path d="M142.072 107.224C142.072 107.224 153.118 107.705 153.598 113.481C154.078 119.256 159.361 156.315 159.361 156.315L161.762 193.375L153.118 194.818L142.624 151.021L142.072 107.224Z" fill="#FFB6C3"/>
<path d="M304.056 121.918C306.335 117.563 309.225 114.421 312.409 112.03H274.878C284.538 125.858 297.348 134.733 304.056 121.918Z" fill="#FFB6C3"/>
</g>
<defs>
<clipPath id="clip0_28_83">
<rect width="382" height="362" fill="white"/>
</clipPath>
</defs>
</svg>
